<svg version="1.2" xmlns="http://www.w3.org/2000/svg" viewBox="0 0 521 406" width="521" height="406">
	<title>New Project</title>
	<path id="Path 0" fill-rule="evenodd" class="s0" d="m260.5 12.1c211.5-0.1 212-0.1 218 1.9 3.3 1.2 7.8 3.1 10 4.4 2.2 1.3 6.4 4.7 9.3 7.7 3.3 3.3 6.8 8.3 9 12.9 3.1 6.4 3.7 8.7 4.5 24.5l-124.9 88.9c-124 88.2-124.9 88.9-127.4 87.3-1.4-0.9-15.3-10.7-31-21.9-15.7-11.1-44.7-31.8-64.5-45.8-19.8-14.1-57.8-41.2-84.5-60.1-26.7-19-52.9-37.7-68-48.4v-6c0-3.3 0.8-8.5 1.8-11.5 1.1-3 2.9-7.5 4.2-10 1.3-2.5 4.8-7 7.9-10.1 3.1-3.1 7.6-6.6 10.1-7.9 2.5-1.3 6.5-3.1 9-4.1 4.2-1.6 17.8-1.7 216.5-1.8zm-187.8 24.5c1.6 1.1 35 24.5 74.3 51.9 39.3 27.4 81.1 56.5 92.8 64.7 12.8 8.9 21.7 14.5 22.5 14.1 0.6-0.4 28-19.4 60.7-42.2 32.7-22.8 67.8-47.3 78-54.4 10.2-7.1 26-18.1 35.2-24.5 9.2-6.4 16.5-12 16.2-12.5-0.2-0.4-86.4-0.7-191.4-0.7-105 0-191 0.3-191 0.7 0 0.5 1.2 1.7 2.7 2.9zm-61.5 48.3l5.6 4.1c3.2 2.3 17.3 12.3 57.1 40.5l0.1 236.5h375v-236.5l30.1-21.5c16.6-11.8 30.5-21.6 31-21.8 0.5-0.1 0.9 56.3 0.9 131.3 0 131.1 0 131.5-2.1 137.7-1.2 3.5-3.6 8.5-5.3 11.3-1.8 2.7-5.2 6.7-7.7 8.9-2.4 2.1-7.6 5.4-11.4 7.2-3.8 1.9-8 3.4-9.2 3.4-1.3 0-2.5 0.5-2.8 1-0.3 0.7-71.8 1-211.2 1-116 0-211.3-0.3-211.8-0.8-0.5-0.5-3-1.4-5.5-2.1-2.5-0.7-6.7-2.6-9.5-4.1-2.7-1.6-7.3-5.2-10.1-8.2-2.8-2.9-6-7.1-7.1-9.3-1.2-2.2-3-6.5-4.2-9.5-2.1-5.5-2.1-5.7-2-137.3z"/>
</svg>