<svg version="1.2" xmlns="http://www.w3.org/2000/svg" viewBox="0 0 1915 1915" width="1915" height="1915">
	<title>New Project</title>
	<path id="Path 0" fill-rule="evenodd" class="s0" d="m950.3 0.2c141.4-0.1 256.3 0.2 278.5 0.8 20.7 0.6 55 1.7 76.2 2.5 21.2 0.8 46.6 2 56.5 2.5 9.9 0.6 25.9 1.7 35.5 2.6 9.6 0.8 24.5 2.4 33 3.5 8.5 1 22.5 3.1 31 4.5 8.5 1.4 23.8 4.3 34 6.6 10.2 2.2 26.2 6.2 35.5 8.8 9.3 2.7 23.8 7.2 32 10 8.3 2.9 20.4 7.4 27 10 6.6 2.7 16.7 6.9 22.5 9.5 5.8 2.6 14.5 6.8 19.5 9.2 5 2.5 14.2 7.5 20.5 11.1 6.3 3.5 16.7 9.8 23 14 6.3 4.1 16.7 11.3 23 16 6.3 4.7 16.7 12.8 23 18.1 6.3 5.3 18.8 16.8 27.8 25.6 9.1 8.8 20.9 20.9 26.3 27 5.3 6.1 13.9 16.2 18.9 22.5 5 6.3 12.4 16.2 16.4 22 4.1 5.8 11.2 16.8 15.9 24.5 4.7 7.7 11.4 19.6 15 26.5 3.6 6.9 9.6 19.2 13.2 27.5 3.7 8.2 9.5 22.6 13 32 3.5 9.4 8.4 23.5 10.8 31.5 2.5 8 6.2 20.8 8.1 28.5 2 7.7 5 20.3 6.6 28 1.6 7.7 4 20.7 5.4 29 1.4 8.2 3.4 22.2 4.5 31 1.1 8.8 2.7 23.6 3.5 33 0.9 9.4 2.2 31 3.1 48 0.8 17 1.9 42.9 2.4 57.5 0.6 14.6 1.6 48.3 2.2 75 0.7 32.5 0.9 128.2 0.6 290.5-0.3 150.3-0.8 253.2-1.5 271.5-0.7 16.2-1.8 45.7-2.7 65.5-0.8 19.8-2.2 45.2-3 56.5-0.9 11.3-2.7 30-4 41.5-1.4 11.5-3.4 26.4-4.5 33-1.2 6.6-3.2 17.8-4.6 25-1.4 7.2-4.8 22-7.6 33-2.8 11-7.9 28.5-11.3 39-3.5 10.5-9 25.7-12.3 34-3.3 8.2-8.9 21.3-12.4 29-3.5 7.7-9.6 19.8-13.5 27-3.9 7.2-10.7 18.6-15 25.5-4.3 6.9-12 18.1-17 25-5 6.9-13.9 18.3-19.9 25.5-5.9 7.2-20 22.2-31.3 33.6-11.4 11.3-26.7 25.6-34.1 31.7-7.4 6.2-20 15.9-28 21.7-8 5.7-21.7 14.7-30.5 20-8.8 5.3-24.1 13.6-34 18.4-9.9 4.9-26.1 12.1-36 16.1-9.9 4-26.5 10.1-37 13.5-10.4 3.5-28 8.5-39 11.3-11 2.8-25.8 6.2-33 7.6-7.2 1.4-18.4 3.4-25 4.5-6.6 1.1-19.4 3-28.5 4.1-9.1 1.1-23.9 2.7-33 3.5-9.1 0.8-30.4 2.1-47.5 3-17 0.8-42.9 1.9-57.5 2.4-14.6 0.6-48.1 1.6-74.5 2.2-32.3 0.7-127.3 0.9-290.5 0.6-149.1-0.2-253.9-0.8-272-1.5-16.2-0.6-40.7-1.6-54.5-2.2-13.7-0.6-33.5-1.5-44-2-10.4-0.6-26.9-1.7-36.5-2.5-9.6-0.9-24.7-2.5-33.5-3.6-8.8-1.1-22.7-3.1-31-4.5-8.2-1.4-21.3-3.8-29-5.4-7.7-1.6-20.3-4.6-28-6.6-7.7-1.9-20.5-5.6-28.5-8.1-8-2.4-22.1-7.3-31.5-10.8-9.3-3.5-23.7-9.3-32-13-8.2-3.6-21.1-9.8-28.5-13.7-7.4-3.9-19.3-10.7-26.5-15-7.1-4.4-17.7-11.3-23.5-15.3-5.8-4.1-15.7-11.5-22-16.5-6.3-5-16.4-13.6-22.5-18.9-6-5.4-18.2-17.2-27-26.3-8.8-9-20.3-21.5-25.6-27.8-5.3-6.3-13.4-16.7-18.1-23-4.7-6.3-11.9-16.7-16-23-4.2-6.3-10.5-16.7-14-23-3.6-6.3-8.6-15.5-11.1-20.5-2.4-5-6.6-13.7-9.2-19.5-2.6-5.8-6.8-15.9-9.5-22.5-2.6-6.6-7.1-18.8-10-27-2.8-8.3-7.3-22.7-10-32-2.6-9.3-6.4-24.2-8.4-33-1.9-8.8-4.9-23.9-6.5-33.5-1.6-9.6-3.9-24.9-5-34-1.2-9.1-2.7-23.9-3.5-33-0.8-9.1-2-24.8-2.5-35-0.6-10.2-1.8-35.6-2.6-56.5-0.8-20.9-1.9-57.6-2.5-81.5-0.5-23.9-1-143.4-1-265.5 0-122.1 0.5-242 1-266.5 0.6-24.5 1.7-61.6 2.5-82.5 0.8-20.9 2-46.3 2.5-56.5 0.6-10.2 1.7-26.1 2.6-35.5 0.8-9.4 2.4-24 3.4-32.5 1.1-8.5 3.1-22.4 4.5-30.8 1.4-8.3 3.9-21.6 5.5-29.4 1.7-7.9 4.9-21.3 7.1-29.8 2.2-8.5 6.8-23.8 10.1-34 3.3-10.2 9.2-26.4 13-36 3.9-9.6 10.5-24.7 14.7-33.5 4.2-8.8 11.5-22.5 16-30.5 4.6-8 12.5-20.6 17.5-28 5-7.4 12.4-17.8 16.5-23 4.1-5.2 12.5-15.3 18.6-22.5 6.2-7.2 19.3-20.9 29.1-30.5 9.9-9.7 23.1-21.9 29.4-27.1 6.3-5.3 15.6-12.7 20.5-16.4 5-3.8 14.2-10.3 20.5-14.5 6.3-4.3 18-11.5 26-16.1 8-4.5 21.7-11.8 30.5-16 8.8-4.2 23.9-10.8 33.5-14.7 9.6-3.8 25.8-9.7 36-13 10.2-3.3 25.5-7.9 34-10.1 8.5-2.2 21.9-5.4 29.8-7.1 7.8-1.6 21.1-4.1 29.5-5.5 8.3-1.4 22.2-3.4 30.7-4.5 8.5-1.1 23.4-2.6 33-3.5 9.6-0.8 25.4-1.9 35-2.5 9.6-0.5 35.5-1.7 57.5-2.5 22-0.9 53.3-1.9 69.5-2.4 16.2-0.4 137.8-0.9 270.3-0.9zm-293.3 174.8c-20.1 0.6-50.9 1.7-68.5 2.5-17.6 0.8-34.9 1.7-38.5 2-3.6 0.2-14.1 1.2-23.5 2-9.3 0.9-24.6 2.7-34 4.1-9.3 1.4-22.4 3.6-29 5-6.6 1.3-18 4-25.2 5.9-7.3 1.9-18.8 5.3-25.5 7.6-6.8 2.2-18.4 6.5-25.8 9.5-7.4 3.1-20.2 9-28.5 13.2-8.2 4.3-20.2 11.2-26.5 15.4-6.3 4.2-16.4 11.6-22.5 16.4-6 4.9-18 15.8-26.5 24.4-8.6 8.5-19.5 20.4-24.4 26.5-4.8 6.1-12.2 16.2-16.4 22.5-4.2 6.3-11.1 18.2-15.4 26.5-4.2 8.2-10.1 21.1-13.2 28.5-3 7.4-7.3 19.1-9.6 26-2.3 6.9-5.9 19.2-8 27.5-2.2 8.2-5 20.9-6.4 28-1.3 7.1-3.4 19.5-4.5 27.5-1.1 8-2.5 19-3.1 24.5-0.5 5.5-1.4 15.6-2 22.5-0.5 6.9-1.6 27.4-2.5 45.5-0.8 18.1-2 48.7-2.7 68-1 25.8-1.3 104.7-1.3 301 0 196.3 0.3 275.2 1.3 301 0.7 19.2 1.9 49.8 2.7 68 0.9 18.2 2.2 41.3 3.1 51.5 0.8 10.2 2.6 26.8 4 37 1.4 10.2 3.8 25.2 5.5 33.5 1.6 8.2 4.5 21 6.4 28.2 1.9 7.3 5.3 18.8 7.6 25.5 2.2 6.8 6.3 17.9 9.1 24.8 2.8 6.9 7.9 18.2 11.4 25.2 3.5 7.1 9.4 17.6 13 23.5 3.7 6 9.2 14.2 12.2 18.3 3.1 4.1 8.9 11.5 13.1 16.5 4.1 5 13.4 14.9 20.6 22 7.1 7.2 18.2 17.3 24.5 22.5 6.3 5.1 17.4 13.2 24.5 17.9 7.2 4.7 18.9 11.6 26 15.3 7.2 3.6 18.4 8.9 25 11.6 6.6 2.8 17.4 6.9 24 9.2 6.6 2.2 16.5 5.4 22 7 5.5 1.6 15.9 4.2 23 5.9 7.2 1.6 19.8 4 28 5.5 8.3 1.4 20.6 3.2 27.5 4 6.9 0.9 20.6 2.2 30.5 3.1 9.9 0.8 33.3 2.1 52 3 18.7 0.8 50.2 2 70 2.7 26.4 1 105.6 1.3 297 1.3 191.7 0 270.6-0.3 297-1.3 19.8-0.7 50.8-1.9 69-2.7 18.2-0.8 39.3-2 47-2.5 7.7-0.6 20.1-1.8 27.5-2.6 7.4-0.8 19.6-2.4 27-3.5 7.4-1.1 20-3.4 28-5 8-1.7 20.1-4.5 27-6.4 6.9-1.9 17.7-5.2 24-7.4 6.3-2.1 16.2-5.7 22-8 5.8-2.3 17.7-7.7 26.5-12.1 8.8-4.3 21.4-11.4 28-15.8 6.6-4.3 15.6-10.7 20-14.1 4.4-3.4 13.4-11.1 20-17 6.6-6 16.8-16.2 22.7-22.7 5.9-6.6 13.5-15.5 16.9-19.9 3.4-4.4 9.8-13.4 14.1-20 4.4-6.6 11.5-19.2 15.8-28 4.4-8.8 9.8-20.7 12.1-26.5 2.3-5.8 5.9-15.7 8-22 2.2-6.3 5.5-17.1 7.4-24 1.9-6.9 4.7-19 6.4-27 1.6-8 3.9-20.6 5-28 1.1-7.4 2.7-19.6 3.5-27 0.8-7.4 2-19.8 2.6-27.5 0.5-7.7 1.7-28.8 2.5-47 0.8-18.2 2-49.4 2.7-69.5 1-26.9 1.3-105.1 1.3-296.5 0-190-0.3-269.8-1.3-296.5-0.7-20.1-1.9-51.8-2.7-70.5-0.9-18.7-2.2-42.1-3-52-0.9-9.9-2.2-23.6-3.1-30.5-0.8-6.9-2.6-19.3-4-27.5-1.5-8.3-3.9-20.9-5.5-28-1.7-7.1-4.3-17.5-5.9-23-1.6-5.5-4.8-15.4-7-22-2.3-6.6-6.4-17.4-9.2-24-2.7-6.6-8-17.8-11.6-25-3.7-7.1-10.6-18.8-15.3-26-4.7-7.1-12.8-18.2-17.9-24.5-5.2-6.3-15.3-17.4-22.5-24.5-7.1-7.2-17-16.5-22-20.6-5-4.2-12.4-10-16.5-13.1-4.1-3-12.5-8.6-18.5-12.3-6-3.8-17.3-9.9-25-13.7-7.7-3.7-19.8-9.1-27-11.9-7.2-2.9-17.7-6.7-23.5-8.6-5.8-1.9-16.3-5-23.5-6.8-7.2-1.9-19.7-4.8-28-6.4-8.2-1.7-23.3-4.1-33.5-5.5-10.2-1.4-26.8-3.2-37-4-10.2-0.9-33.8-2.3-52.5-3.1-18.7-0.8-46.8-2-62.5-2.6-18.4-0.7-117.6-1.2-280.5-1.3-138.6-0.1-260.3-0.1-270.5 0-10.2 0.2-34.9 0.8-55 1.4zm815.8 156.6c6.1 0.2 14.5 1.1 18.5 1.9 3.9 0.9 10.6 2.7 14.7 4.1 4.1 1.4 11.3 4.5 16 7 4.7 2.4 11.4 6.6 15 9.3 3.6 2.7 10.2 8.8 14.8 13.5 4.5 4.7 10.3 11.9 12.9 15.9 2.6 3.9 6.4 10.8 8.4 15.2 2.1 4.4 4.9 12.3 6.3 17.5 1.4 5.2 3.1 14 3.7 19.5 0.7 7.1 0.8 13.1 0 20.5-0.6 5.8-2 14.1-3.1 18.5-1.1 4.4-3.5 11.6-5.3 16-1.8 4.4-5.7 12-8.7 16.9-3.5 5.7-9.2 12.7-15.5 19.2-6.4 6.6-13.2 12.3-19 16-4.9 3.2-12.4 7.3-16.5 9-4.1 1.8-11.8 4.5-17 6-7.7 2.1-12.4 2.7-24.5 3.1-8.6 0.3-18 0.1-22-0.5-3.8-0.6-11-2.3-16-3.7-4.9-1.5-12.6-4.4-17-6.5-4.4-2.2-11.2-6.1-15-8.8-3.8-2.7-10.1-7.7-13.9-11.3-3.8-3.5-9.4-9.8-12.5-13.9-3.1-4.1-7.4-10.6-9.6-14.5-2.1-3.9-5.3-11.1-7.1-16-1.8-4.9-4-13.1-5-18-1-5.4-1.7-13.8-1.7-21 0-7.5 0.6-15.4 1.7-21 1-4.9 3.1-12.8 4.8-17.5 1.6-4.7 4.8-11.9 7-16 2.2-4.1 6.1-10.4 8.8-14 2.6-3.6 8.6-10.1 13.1-14.5 4.6-4.4 11.6-10.1 15.4-12.7 3.8-2.5 9.9-6 13.5-7.8 3.6-1.8 10.3-4.5 15-6 4.7-1.5 11.9-3.3 16-3.9 4.1-0.6 8.6-1.3 10-1.5 1.4-0.3 7.6-0.3 13.8 0zm-517.3 134.5c15.4 0 33.4 0.4 40 0.9 6.6 0.6 17.6 1.7 24.5 2.6 6.9 0.9 18.6 2.7 26 4 7.4 1.4 20.9 4.3 30 6.5 9.1 2.2 25.7 7.1 37 10.9 11.3 3.7 27.7 9.9 36.5 13.6 8.8 3.7 22.8 10.2 31 14.4 8.3 4.2 20.2 10.8 26.5 14.5 6.3 3.8 16.2 10 22 13.8 5.8 3.9 15.5 10.7 21.5 15.2 6 4.4 16.6 12.8 23.5 18.5 6.9 5.7 21.1 19 31.5 29.5 10.5 10.4 24 25 30 32.3 6.1 7.4 15 18.9 20 25.7 5 6.8 12.7 18.2 17.1 25.2 4.5 7 11.9 19.6 16.4 27.8 4.6 8.3 11.1 21.1 14.5 28.5 3.4 7.4 8.4 18.9 11 25.5 2.6 6.6 7.2 19.4 10.2 28.5 3 9.1 7.2 23.5 9.4 32 2.2 8.5 5 21.4 6.4 28.5 1.3 7.1 3.1 17.7 3.9 23.5 0.9 5.8 2.1 15.7 2.8 22 0.8 7.3 1.3 24.8 1.3 48-0.1 28.4-0.4 39.8-1.8 51.5-1 8.3-2.9 21.5-4.2 29.5-1.4 8-3.6 19.7-5 26-1.5 6.3-4.2 17.1-6.1 24-1.9 6.9-4.9 16.8-6.6 22-1.7 5.2-6.2 17.6-10.1 27.5-3.9 9.9-11.7 27.2-17.3 38.5-5.6 11.3-13.2 25.5-16.9 31.5-3.7 6-9.9 16-14 22-4 6-11 16-15.5 22-4.6 6-13 16.6-18.9 23.5-5.8 6.9-17.9 19.9-27.1 29-9.1 9.2-22.1 21.3-29 27.1-6.9 5.9-17.5 14.3-23.5 18.9-6 4.5-16 11.5-22 15.5-6 4.1-16 10.3-22 14-6 3.7-20.2 11.3-31.5 16.9-11.3 5.6-28.6 13.4-38.5 17.3-9.9 3.9-23 8.7-29 10.6-6 2-15.3 4.7-20.5 6.2-5.2 1.5-15.3 4-22.5 5.6-7.2 1.6-19.5 4-27.5 5.4-8 1.3-20.8 3.1-28.5 4-8.4 1-26.3 1.9-44.5 2.2-23.5 0.4-34.8 0.2-49-1.1-10.2-0.9-24.6-2.5-32-3.6-7.4-1.1-18.9-3.1-25.5-4.5-6.6-1.3-18.3-4-26-6-7.7-2-21.2-6-30-8.9-8.8-3-21.4-7.5-28-10.1-6.6-2.6-18.1-7.6-25.5-11-7.4-3.4-20.2-9.9-28.5-14.5-8.2-4.5-20.8-11.9-27.8-16.4-7-4.4-18.4-12.1-25.2-17.1-6.8-5-18.3-13.9-25.7-20-7.3-6-21.9-19.5-32.3-30-10.5-10.4-23.8-24.6-29.5-31.5-5.7-6.9-14.1-17.5-18.5-23.5-4.5-6-11.3-15.7-15.2-21.5-3.8-5.8-9.9-15.5-13.4-21.5-3.6-6-9.1-15.7-12.1-21.5-3.1-5.8-8.2-16.1-11.3-23-3.1-6.9-7.5-17-9.7-22.5-2.2-5.5-6-15.8-8.5-23-2.4-7.2-6.2-19.3-8.4-27-2.2-7.7-5.5-21.2-7.4-30-1.8-8.8-4.3-22.3-5.5-30-1.1-7.7-2.7-21.4-3.5-30.5-0.8-9.1-1.5-28-1.5-42 0-14 0.4-31.4 1-38.5 0.6-7.1 1.9-19.7 3.1-28 1.1-8.2 3.1-20.9 4.5-28 1.4-7.1 4.3-20 6.5-28.5 2.2-8.5 6.1-21.8 8.6-29.5 2.5-7.7 7.4-21.4 11-30.5 3.6-9.1 10.2-24.1 14.8-33.5 4.6-9.4 12.1-23.3 16.6-31 4.5-7.7 11.8-19.4 16.2-26 4.4-6.6 12-17.2 16.8-23.5 4.8-6.3 12.5-16 17-21.5 4.6-5.5 17.1-18.8 27.9-29.5 10.7-10.8 24-23.3 29.5-27.9 5.5-4.5 15.2-12.2 21.5-17 6.3-4.8 16.9-12.4 23.5-16.8 6.6-4.4 18.3-11.7 26-16.2 7.7-4.5 21.7-12 31-16.6 9.4-4.6 24.4-11.2 33.5-14.8 9.1-3.6 22.8-8.5 30.5-11 7.7-2.5 21-6.4 29.5-8.6 8.5-2.2 21.4-5.1 28.5-6.5 7.2-1.4 19.8-3.4 28-4.6 8.3-1.1 19.7-2.4 25.5-2.9 5.8-0.4 23.1-0.9 38.5-1zm-61.5 178.9c-8 1.6-19.9 4.5-26.5 6.4-6.6 1.9-17.2 5.5-23.5 7.9-6.3 2.4-16.2 6.6-22 9.4-5.8 2.7-14.8 7.3-20 10.2-5.2 3-14.7 8.8-21 12.9-6.3 4.2-17.1 12.1-24 17.7-6.9 5.5-18.1 15.6-25 22.5-6.9 6.9-17 18.1-22.5 25-5.6 6.9-13.5 17.7-17.7 24-4.1 6.3-9.9 15.8-12.9 21-2.9 5.2-7.5 14.2-10.2 20-2.8 5.8-7 15.7-9.4 22-2.4 6.3-6 16.9-7.9 23.5-1.9 6.6-4.8 18.5-6.4 26.5-1.6 8-3.6 20.6-4.5 28-0.9 8.2-1.5 22.1-1.5 35.5 0 13.4 0.6 27.3 1.5 35.5 0.9 7.4 2.9 20 4.5 28 1.6 8 4.3 19.2 5.9 25 1.7 5.8 4.8 15.2 6.9 21 2.2 5.8 6.2 15.7 9.1 22 2.8 6.3 7.9 16.5 11.3 22.5 3.3 6 8.9 15.3 12.3 20.5 3.5 5.2 9.6 13.8 13.6 19.1 4.1 5.4 12 14.8 17.6 21 5.6 6.3 15 15.8 21 21.1 5.9 5.3 13.5 11.8 16.8 14.3 3.3 2.6 9.6 7.3 14 10.4 4.4 3.1 12 8.2 17 11.2 5 3.1 13.7 8.1 19.5 11.2 5.8 3 15.5 7.6 21.5 10.2 6 2.6 16.9 6.7 24 9.1 7.2 2.5 18.4 5.8 25 7.4 6.6 1.6 16 3.6 21 4.5 5 0.9 15.1 2.2 22.5 3 7.4 0.8 22.3 1.5 33 1.5 10.7 0 24.2-0.5 30-1 5.8-0.6 16.1-2 23-3.1 6.9-1.1 17.2-3.1 23-4.5 5.8-1.4 15.5-4.2 21.5-6.1 6-2 15.3-5.2 20.5-7.3 5.2-2.1 13.3-5.6 18-7.8 4.7-2.1 12.8-6.3 18-9.2 5.2-2.8 15.1-8.9 22-13.4 6.9-4.6 17.2-12 23-16.6 5.8-4.5 17.7-15.5 26.6-24.4 8.9-8.9 19.9-20.8 24.4-26.6 4.6-5.8 12-16.1 16.6-23 4.5-6.9 10.6-16.8 13.4-22 2.9-5.2 7.1-13.3 9.2-18 2.2-4.7 5.7-12.8 7.8-18 2.1-5.2 5.3-14.5 7.3-20.5 1.9-6 4.7-15.7 6.1-21.5 1.4-5.8 3.4-16.1 4.5-23 1.1-6.9 2.5-17.2 3.1-23 0.5-5.8 1-19.3 1-30 0-10.7-0.7-25.6-1.5-33-0.8-7.4-2.1-17.5-3-22.5-0.9-5-2.9-14.4-4.5-21-1.6-6.6-4.9-17.9-7.4-25-2.4-7.1-6.5-18-9.1-24-2.6-6-7.2-15.7-10.2-21.5-3.1-5.8-8.1-14.5-11.2-19.5-3-5-8-12.6-11.2-17-3.1-4.4-8.3-11.4-11.6-15.5-3.3-4.1-9.9-11.8-14.6-17-4.8-5.2-13.3-13.7-19-18.8-5.6-5.2-16-13.8-23.2-19.1-7.2-5.4-16.2-11.8-20-14.3-3.8-2.5-12-7.2-18-10.6-6-3.4-16.2-8.5-22.5-11.3-6.3-2.9-16.2-6.9-22-9.1-5.8-2.1-15.2-5.2-21-6.9-5.8-1.6-17-4.3-25-5.9-8-1.6-20.6-3.6-28-4.5-8.8-1-21.6-1.5-37-1.4-13.4 0.1-28.7 0.7-35.5 1.5-6.6 0.8-18.5 2.8-26.5 4.4z"/>
</svg>