<svg version="1.2" xmlns="http://www.w3.org/2000/svg" viewBox="0 0 521 234" width="521" height="234">
	<title>New Project</title>
	<path id="Path 0" class="s0" d="m301.5 34.2c-4.9 1.1-11.4 3.1-14.3 4.4l-5.2 2.4c-0.1 158.9 0 163.6 1.7 165.2 1.7 1.6 6.7 1.8 67.5 1.8 64.6 0 65.9 0 72.5-2.2 3.8-1.1 9.1-3.6 11.8-5.3 2.8-1.8 6.4-4.6 8-6.1 1.7-1.6 4.4-4.9 6.1-7.4 1.7-2.5 4.1-7.2 5.4-10.5 1.7-4.4 2.4-8.9 2.8-17 0.4-9.7 0.2-11.7-1.7-17-1.3-3.3-3.5-8.2-4.9-10.9-1.5-2.6-5.2-7.2-8.2-10.1-3.2-3.1-8.4-6.7-12.5-8.6-5.7-2.7-8.5-3.4-15-3.7-4.4-0.2-9.8 0.1-12 0.6-2.2 0.6-4.9 1.4-6 1.7-1.8 0.6-2.1-0.1-3.4-7.2-0.7-4.3-2.5-11.2-4-15.3-1.5-4.1-4.9-11.3-7.7-15.9-2.7-4.6-7.4-11.1-10.5-14.5-3.1-3.3-9.1-8.6-13.5-11.6-4.3-3-10.8-6.6-14.4-8.1-3.6-1.5-10.1-3.5-14.5-4.4-4.4-0.9-10.5-1.8-13.5-2-3.3-0.2-9.1 0.4-14.5 1.7zm-40.4 16.6c-0.5 0.9-1.4 4.6-2 8.2-0.5 3.6-1.6 14.4-2.3 24-0.8 10.5-1.3 32.6-1.2 55 0.1 20.6 0.5 43.6 1 51.2 0.8 12.5 1.1 13.8 3.4 16.3 1.6 1.7 3.3 2.5 4.9 2.3 1.3-0.2 3.3-1.4 4.3-2.8 1.7-2.3 2-5.5 3-34.5 0.8-23.7 0.8-40.4-0.1-64.5-0.6-17.9-1.6-37-2.2-42.5-0.6-5.5-1.5-11-2-12.2-0.6-1.5-1.7-2.3-3.4-2.3-1.3 0-2.9 0.8-3.4 1.8zm-74.7 17c-0.6 0.4-1.4 1.6-1.8 2.7-0.4 1.1-1.4 7.4-2.2 14-1 7.5-1.7 25.8-2.1 48.5-0.3 21.5-0.1 43.3 0.6 53 0.8 13.5 1.4 17 2.9 19 1.1 1.4 3 2.6 4.3 2.8 1.6 0.2 3.3-0.6 4.9-2.3 2.4-2.5 2.5-3.6 3.3-18.3 0.5-8.7 0.6-31.9 0.4-51.7-0.3-19.8-1.1-42.1-1.7-49.5-0.7-7.4-1.8-14.7-2.6-16.2-0.8-1.6-2.2-2.8-3.1-2.8-1 0-2.3 0.4-2.9 0.8zm24.2 1.4c-0.9 1.4-2.2 7.6-3.1 16.3-1 8.5-1.9 26.9-2.2 46.5-0.3 19.2-0.1 40.2 0.6 51.3 0.6 10.3 1.5 19.5 2 20.5 0.5 0.9 2.1 2.4 3.5 3.2 2.3 1.3 2.9 1.3 5.1 0 1.4-0.8 3-2.6 3.7-4 0.8-1.7 1.3-15.7 1.6-45 0.3-33.8 0.1-46.9-1.2-64-1-11.8-2.3-22.6-2.9-24-0.7-1.4-2.2-2.6-3.4-2.8-1.3-0.2-2.7 0.5-3.7 2zm25 7.1c-0.9 1.3-2.2 8.5-3.2 17.7-1.3 11.6-1.8 24.2-1.8 49.5-0.1 18.7 0.3 39.9 0.8 47 0.8 11.7 1.1 13.2 3.2 15.3 1.5 1.3 3.4 2.1 5.1 2 1.4-0.2 3.4-1.4 4.5-2.8 1.6-2.2 1.9-5.7 2.8-30 0.5-17.3 0.6-36.4 0-51.5-0.6-13.2-1.5-28.7-2.1-34.5-0.6-5.8-1.5-11.5-2-12.7q-0.9-2.3-3.4-2.3c-1.4 0-3.1 0.9-3.9 2.3zm-76 9.9c-0.7 1.8-1.9 7.8-2.5 13.3-0.6 5.5-1.6 18.8-2.2 29.5-0.7 14-0.7 26.4 0.1 44 0.6 13.5 1.3 25.9 1.6 27.5 0.4 1.7 1.6 4 2.8 5.3 1.1 1.2 3 2.3 4.1 2.3 1.1 0 3.1-1.2 4.5-2.7 2.4-2.5 2.5-3.4 3.3-19.2 0.5-9.2 0.6-29.1 0.4-44.2-0.3-15.1-1.1-33.3-1.7-40.5-0.7-7.1-1.7-14.1-2.4-15.5-0.7-1.6-2.1-2.6-3.8-2.8-2.3-0.3-3 0.2-4.2 3zm-24.3 25.1c-0.6 0.6-1.3 2.1-1.7 3.2-0.4 1.1-1.4 7.2-2.2 13.5-0.8 6.3-1.7 17.4-2.1 24.5-0.3 7.7-0.1 20.7 0.7 32 1.3 17.7 1.5 19.2 3.7 21.3 1.3 1.2 3.3 2.2 4.6 2.2 1.2 0 3.2-0.8 4.5-1.8 2.1-1.6 2.4-2.8 3.4-16.7 0.5-8.2 0.7-23.8 0.4-34.5-0.3-10.7-1.1-23.8-1.7-29-0.6-5.2-1.7-11-2.5-12.7-1-2.4-2.1-3.3-3.8-3.3-1.3 0-2.8 0.6-3.3 1.3zm-48.3 12.7c-0.9 0.6-2.1 2.5-2.7 4.3-0.7 1.7-1.9 7.7-2.8 13.2-1.1 6.3-1.5 13-1.2 18 0.3 4.4 0.9 10.5 1.4 13.6 0.5 3.3 1.6 6.6 2.8 7.8 1.4 1.5 2.9 2.1 4.9 1.9 1.7-0.2 3.7-1.3 4.7-2.8 1.3-1.7 2.2-5.9 3-13.5 0.6-6.1 0.8-14.8 0.5-19.5-0.4-4.7-1.1-11.3-1.6-14.7-0.8-4.8-1.6-6.7-3.2-7.8-1.3-0.8-2.8-1.5-3.3-1.5-0.5 0-1.7 0.5-2.5 1zm22.1-16c-0.7 1-1.9 7.2-2.7 13.7-0.8 6.5-1.8 19.2-2.1 28.3-0.4 9.7-0.1 23.3 0.6 33 0.8 10.5 1.8 17.3 2.7 18.8 1 1.6 2.4 2.2 5.2 2.2 2.3 0.1 4.4-0.6 5.5-1.7 1.5-1.5 1.9-4.9 2.9-21.8 0.8-14.9 0.8-25-0.1-39.5-0.6-10.7-1.6-22.4-2.2-26-0.6-3.6-1.6-7.1-2.2-7.8-0.7-0.7-2.3-1.3-3.8-1.2-1.4 0-3.1 0.9-3.8 2z"/>
</svg>